<svg width="1024" height="1024" viewBox="0 0 1024 1024" fill="none" xmlns="http://www.w3.org/2000/svg">
<rect width="1024" height="1024" rx="214" fill="#516FF7"/>
<path fill-rule="evenodd" clip-rule="evenodd" d="M804.549 304.319C795.496 313.371 782.99 318.97 769.177 318.97H601.532C592.199 318.97 583.749 322.753 577.633 328.87C571.516 334.986 567.733 343.436 567.733 352.769V475.799V567.733H475.799H352.769C343.436 567.733 334.986 571.516 328.87 577.633C322.753 583.749 318.97 592.199 318.97 601.532V769.177C318.97 782.99 313.371 795.496 304.319 804.549C295.266 813.601 282.761 819.2 268.947 819.2C255.134 819.2 242.628 813.601 233.576 804.549C224.523 795.496 218.924 782.99 218.924 769.177L218.924 580.577C218.924 549.403 231.56 521.181 251.989 500.752C272.418 480.323 300.64 467.687 331.814 467.687H467.687V331.814C467.687 300.64 480.323 272.418 500.752 251.989C521.181 231.56 549.403 218.924 580.577 218.924H769.177C782.99 218.924 795.496 224.523 804.549 233.576C813.601 242.628 819.2 255.134 819.2 268.947C819.2 282.761 813.601 295.266 804.549 304.319Z" fill="white"/>
</svg>
